<svg width="17" height="15" viewBox="0 0 17 15" fill="none" xmlns="http://www.w3.org/2000/svg">
<path fill-rule="evenodd" clip-rule="evenodd" d="M6.66646 1.66666C5.74599 1.66666 4.99979 2.41286 4.99979 3.33333C4.99979 4.2538 5.74599 4.99999 6.66646 4.99999C7.58693 4.99999 8.33312 4.2538 8.33312 3.33333C8.33312 2.41286 7.58693 1.66666 6.66646 1.66666ZM3.33313 3.33333C3.33313 1.49238 4.82551 0 6.66646 0C8.50741 0 9.99979 1.49238 9.99979 3.33333C9.99979 5.17428 8.50741 6.66666 6.66646 6.66666C4.82551 6.66666 3.33313 5.17428 3.33313 3.33333Z" fill="#808191"/>
<path fill-rule="evenodd" clip-rule="evenodd" d="M4.16666 9.99995C2.78595 9.99995 1.66666 11.1192 1.66666 12.4999V14.1666C1.66666 14.6268 1.29357 14.9999 0.833332 14.9999C0.373096 14.9999 0 14.6268 0 14.1666V12.4999C0 10.1988 1.86548 8.33328 4.16666 8.33328H9.16666C11.4678 8.33328 13.3333 10.1988 13.3333 12.4999V14.1666C13.3333 14.6268 12.9602 14.9999 12.5 14.9999C12.0397 14.9999 11.6667 14.6268 11.6667 14.1666V12.4999C11.6667 11.1192 10.5474 9.99995 9.16666 9.99995H4.16666Z" fill="#808191"/>
<path d="M15 14.1667C15 14.6269 15.3731 15 15.8333 15C16.2935 15 16.6666 14.6269 16.6666 14.1667V12.5C16.6666 10.2833 14.9356 8.47086 12.7515 8.34084C13.6282 9.1173 14.299 10.1212 14.6713 11.26C14.8804 11.6255 15 12.0488 15 12.5V14.1667Z" fill="#808191"/>
<path d="M10.4166 6.64093C12.061 6.43601 13.3335 5.03329 13.3335 3.33336C13.3335 1.63343 12.061 0.230712 10.4166 0.0257874C11.1947 0.90724 11.6668 2.06516 11.6668 3.33336C11.6668 4.60156 11.1947 5.75948 10.4166 6.64093Z" fill="#808191"/>
</svg>
