<svg width="16" height="16" viewBox="0 0 16 16" fill="none" xmlns="http://www.w3.org/2000/svg">
<path d="M10.2575 6.23971C10.1124 6.23986 9.97329 6.29615 9.87075 6.39622C9.7682 6.49629 9.7106 6.63195 9.7106 6.7734C9.7106 7.19773 9.53768 7.60468 9.22987 7.90472C8.92207 8.20477 8.5046 8.37333 8.0693 8.37333C7.634 8.37333 7.21653 8.20477 6.90873 7.90472C6.60092 7.60468 6.428 7.19773 6.428 6.7734C6.4304 6.70188 6.41803 6.63062 6.39161 6.56386C6.36519 6.4971 6.32527 6.4362 6.27422 6.38478C6.22317 6.33337 6.16204 6.29248 6.09445 6.26456C6.02686 6.23663 5.95421 6.22224 5.8808 6.22224C5.8074 6.22224 5.73474 6.23663 5.66716 6.26456C5.59957 6.29248 5.53844 6.33337 5.48739 6.38478C5.43634 6.4362 5.39642 6.4971 5.37 6.56386C5.34358 6.63062 5.3312 6.70188 5.33361 6.7734C5.33361 7.48066 5.62183 8.15896 6.13487 8.65907C6.64791 9.15919 7.34375 9.44015 8.0693 9.44015C8.79485 9.44015 9.49068 9.15919 10.0037 8.65907C10.5168 8.15896 10.805 7.48066 10.805 6.7734C10.805 6.63185 10.7473 6.49611 10.6446 6.39602C10.542 6.29593 10.4027 6.23971 10.2575 6.23971Z" fill="#808191"/>
<path d="M15.9909 15.1747L14.5038 4.41263C14.45 4.04211 14.1275 3.77263 13.7333 3.77263H11.225V3.03158C11.225 1.36421 9.77372 0 7.99996 0C6.22619 0 4.77492 1.36421 4.77492 3.03158V3.77263H2.26657C1.87239 3.77263 1.53197 4.04211 1.49614 4.41263L0.00904315 15.1747C-0.0267905 15.3768 0.0448768 15.5958 0.206128 15.7474C0.349463 15.8989 0.564465 16 0.797384 16H15.2204C15.4534 16 15.6684 15.9158 15.8117 15.7474C15.955 15.5958 16.0267 15.3768 15.9909 15.1747ZM6.35161 3.03158C6.35161 2.17263 7.0862 1.48211 7.99996 1.48211C8.91372 1.48211 9.64831 2.17263 9.64831 3.03158V3.77263H6.35161V3.03158ZM1.67531 14.5179L2.94741 5.23789H13.0346L14.3067 14.5179H1.67531Z" fill="#808191"/>
</svg>
