<svg width="21" height="21" viewBox="0 0 21 21" fill="none" xmlns="http://www.w3.org/2000/svg">
<path d="M18.9478 0.908596C18.627 0.158017 17.9918 0.0047405 17.3376 0.0047405C12.0235 -1.00967e-07 8.44915 0.00316054 3.13663 0C2.5978 0 2.03052 0.218063 1.79033 0.701594C0.875413 2.55039 0.937039 2.4303 0.009481 4.5572H20.5991C20.2261 3.57908 19.2654 1.66392 18.9446 0.908596H18.9478ZM20.6085 9.62638V6.74415L0 6.73625V9.51261C0 13.591 0 16.7292 0 18.9272C0 19.9212 0.404523 20.3257 1.39687 20.3273C2.43188 20.3273 4.31702 20.3273 5.43736 20.3273V19.6826C5.43736 17.3297 5.43736 15.8175 5.43736 13.4662C5.43736 12.4217 5.8087 12.0504 6.85635 12.0504C9.71803 12.0504 10.8874 12.0504 13.749 12.0504C14.8014 12.0504 15.1743 12.4185 15.1743 13.4583C15.1743 15.8112 15.1743 17.3218 15.1743 19.6747V20.3083C16.4258 20.3083 18.4816 20.3462 19.6873 20.2909C20.2814 20.2641 20.6085 19.7189 20.6117 18.9873C20.6117 15.7717 20.6117 12.6508 20.6117 9.62638H20.6085ZM12.1009 14.3479H8.525C8.09994 14.3479 7.75862 14.6892 7.75862 15.1127V20.2893H12.8673V15.1127C12.8673 14.6892 12.526 14.3479 12.1009 14.3479Z" fill="#1F8B4D"/>
</svg>
