<svg width="18" height="17" viewBox="0 0 18 17" fill="none" xmlns="http://www.w3.org/2000/svg">
<path d="M1.43457 3.31028C1.43457 3.91045 1.61534 4.49713 1.95401 4.99615C2.29269 5.49517 2.77406 5.8841 3.33725 6.11378C3.90045 6.34345 4.52018 6.40354 5.11806 6.28646C5.71595 6.16937 6.26514 5.88036 6.69619 5.45599C7.12724 5.03161 7.42079 4.49091 7.53972 3.90228C7.65865 3.31365 7.59761 2.70352 7.36433 2.14904C7.13104 1.59456 6.73599 1.12064 6.22913 0.787205C5.72226 0.453772 5.12636 0.275803 4.51676 0.275803C3.69931 0.275803 2.91534 0.595506 2.33732 1.16458C1.7593 1.73366 1.43457 2.50549 1.43457 3.31028ZM5.91775 3.31028C5.91775 3.58308 5.83558 3.84976 5.68164 4.07659C5.5277 4.30341 5.30889 4.4802 5.05289 4.5846C4.7969 4.68899 4.5152 4.71631 4.24344 4.66309C3.97167 4.60987 3.72204 4.4785 3.5261 4.2856C3.33017 4.0927 3.19674 3.84693 3.14268 3.57937C3.08862 3.31181 3.11637 3.03448 3.22241 2.78244C3.32844 2.53041 3.50801 2.31499 3.73841 2.16343C3.9688 2.01187 4.23967 1.93097 4.51676 1.93097C4.88832 1.93097 5.24467 2.07629 5.50741 2.33496C5.77015 2.59363 5.91775 2.94447 5.91775 3.31028Z" fill="#808191"/>
<path d="M16.5655 13.0337C16.5655 12.4336 16.3847 11.8469 16.0461 11.3479C15.7074 10.8489 15.226 10.4599 14.6628 10.2303C14.0996 10.0006 13.4799 9.94049 12.882 10.0576C12.2841 10.1747 11.7349 10.4637 11.3039 10.888C10.8728 11.3124 10.5793 11.8531 10.4603 12.4418C10.3414 13.0304 10.4025 13.6405 10.6357 14.195C10.869 14.7495 11.2641 15.2234 11.7709 15.5568C12.2778 15.8903 12.8737 16.0682 13.4833 16.0682C14.3008 16.0682 15.0847 15.7485 15.6627 15.1795C16.2408 14.6104 16.5655 13.8385 16.5655 13.0337ZM12.0823 13.0337C12.0823 12.7609 12.1645 12.4943 12.3184 12.2674C12.4724 12.0406 12.6912 11.8638 12.9472 11.7594C13.2032 11.655 13.4849 11.6277 13.7566 11.6809C14.0284 11.7342 14.278 11.8655 14.474 12.0584C14.6699 12.2513 14.8033 12.4971 14.8574 12.7647C14.9114 13.0322 14.8837 13.3096 14.7777 13.5616C14.6716 13.8136 14.4921 14.029 14.2617 14.1806C14.0313 14.3322 13.7604 14.4131 13.4833 14.4131C13.1117 14.4131 12.7554 14.2677 12.4927 14.0091C12.2299 13.7504 12.0823 13.3996 12.0823 13.0337Z" fill="#808191"/>
<path d="M2.83561 11.1689V14.1372C2.83561 14.7225 3.07178 15.2838 3.49216 15.6977C3.91254 16.1115 4.48269 16.3441 5.0772 16.3441H8.99998V14.6889H5.0772C4.92857 14.6889 4.78603 14.6308 4.68094 14.5273C4.57584 14.4238 4.5168 14.2835 4.5168 14.1372V11.1689L6.16437 12.791L7.35241 11.6213L4.27023 8.58682C4.11262 8.43184 3.89897 8.34479 3.67621 8.34479C3.45345 8.34479 3.2398 8.43184 3.08219 8.58682L0 11.6213L1.18804 12.791L2.83561 11.1689Z" fill="#808191"/>
<path d="M15.1644 5.17517V2.2069C15.1644 1.62159 14.9282 1.06026 14.5078 0.646385C14.0874 0.232511 13.5173 0 12.9228 0H9V1.65517H12.9228C13.0714 1.65517 13.2139 1.7133 13.319 1.81677C13.4241 1.92024 13.4832 2.06057 13.4832 2.2069V5.17517L11.8356 3.5531L10.6476 4.72276L13.7298 7.75724C13.8874 7.91222 14.101 7.99927 14.3238 7.99927C14.5465 7.99927 14.7602 7.91222 14.9178 7.75724L18 4.72276L16.8119 3.5531L15.1644 5.17517Z" fill="#808191"/>
</svg>
